<svg width="992" height="250" viewBox="0 0 992 250" fill="none" xmlns="http://www.w3.org/2000/svg">
<path d="M452.2 7.39973H534.9V239.2H452.2V7.39973ZM0 76.4997H59.4V239.1H139.4V76.4997H198.8V7.39973H0V76.4997ZM355.8 7.39973L306.3 161.2C304.8 165.8 298.1 164.7 298.1 159.9V7.39973H219.5V239.2H363.8L442.2 7.39973H355.8ZM697.9 7.39973V104.2C697.9 108.7 691.9 110.1 689.9 106.1L641 7.39973H562.9V239.2H638.9V142.9C638.9 138.4 644.9 137 646.9 141L695.6 239.2H773.7V7.39973H697.9ZM870.4 146.6V95.9997C870.4 83.1997 875.5 73.6997 887.8 70.4997C901 67.0997 913.1 75.3997 917.3 89.1997L990 50.2997C961.3 -2.00027 907.7 -1.30027 886.2 0.599726C864.2 2.49973 841.7 9.19973 821.8 26.1997C801.9 43.1997 792.5 70.8997 792.5 100.2V145.9C792.5 189.4 809.7 218.4 839.3 235.4C890.4 264.6 962.1 244.7 991.1 222.6V111.3H916V180.7C905.5 184.9 870.4 189.6 870.4 146.6Z" fill="#FF153C"/>
</svg>
