<svg width="1144" height="785" viewBox="0 0 1144 785" fill="none" xmlns="http://www.w3.org/2000/svg">
<g clip-path="url(#clip0_80_15)">
<path d="M187.879 608.29H204.426V716.307H187.879V608.29Z" fill="#F0E1D4" stroke="#D8BAA3" stroke-width="1.0708" stroke-miterlimit="10" stroke-linecap="round"/>
<path d="M212.696 528.372H179.603V604.201C179.606 606.275 180.433 608.263 181.901 609.728C183.369 611.193 185.359 612.015 187.433 612.013H204.883C206.958 612.013 208.948 611.189 210.416 609.722C211.883 608.254 212.707 606.264 212.707 604.189V528.372H212.696Z" fill="white" stroke="#D8BAA3" stroke-width="1.0708" stroke-miterlimit="10" stroke-linecap="round"/>
<path d="M139.258 734.787V759.478H155.061V749.497C155.061 744.595 157.009 739.893 160.475 736.426C163.942 732.96 168.644 731.012 173.546 731.012H218.575C223.478 731.012 228.18 732.96 231.646 736.426C235.113 739.893 237.061 744.595 237.061 749.497V759.478H252.864V734.787C252.864 729.884 250.916 725.182 247.449 721.716C243.983 718.249 239.281 716.302 234.378 716.302H157.738C152.836 716.303 148.136 718.251 144.67 721.718C141.205 725.184 139.258 729.885 139.258 734.787Z" fill="#F0E1D4" stroke="#D8BAA3" stroke-width="1.0708" stroke-miterlimit="10" stroke-linecap="round"/>
<path d="M147.243 783.202C138.177 783.202 130.828 775.853 130.828 766.787C130.828 757.721 138.177 750.372 147.243 750.372C156.308 750.372 163.658 757.721 163.658 766.787C163.658 775.853 156.308 783.202 147.243 783.202Z" fill="white" stroke="#D8BAA3" stroke-width="1.0708" stroke-miterlimit="10" stroke-linecap="round"/>
<path d="M245.617 783.202C236.552 783.202 229.202 775.853 229.202 766.787C229.202 757.721 236.552 750.372 245.617 750.372C254.683 750.372 262.032 757.721 262.032 766.787C262.032 775.853 254.683 783.202 245.617 783.202Z" fill="white" stroke="#D8BAA3" stroke-width="1.0708" stroke-miterlimit="10" stroke-linecap="round"/>
<path d="M157.835 490.481L117.038 370.584H87.8691L128.666 490.481H157.835Z" fill="#F0E1D4" stroke="#D8BAA3" stroke-width="1.0708" stroke-miterlimit="10" stroke-linecap="round"/>
<path d="M165.842 490.481L125.045 370.584H95.8763L136.673 490.481H165.842Z" fill="white" stroke="#D8BAA3" stroke-width="1.0708" stroke-miterlimit="10" stroke-linecap="round"/>
<path d="M66.8331 504.196C66.8331 506.53 70.3563 508.772 76.7277 510.774C95.5676 516.745 139.276 520.931 190.19 520.931C237.05 520.931 277.801 517.385 298.688 512.163C300.495 511.713 302.152 511.25 303.658 510.774C310.03 508.755 313.553 506.53 313.553 504.196C313.553 502.217 311.031 500.324 306.392 498.563C289.348 492.088 243.753 487.455 190.19 487.455C122.06 487.455 66.8331 494.954 66.8331 504.196Z" fill="white" stroke="#D8BAA3" stroke-width="1.0708" stroke-miterlimit="10" stroke-linecap="round"/>
<path d="M66.8329 504.196V517.351C66.8329 526.593 122.06 534.086 190.19 534.086C237.049 534.086 277.8 530.54 298.688 525.318C308.171 522.95 313.558 520.239 313.558 517.351V504.196C313.558 506.529 310.035 508.771 303.664 510.773C302.161 511.25 300.505 511.713 298.694 512.163C277.806 517.385 237.055 520.931 190.196 520.931C139.293 520.931 95.5731 516.744 76.7333 510.773C70.3561 508.754 66.8329 506.529 66.8329 504.196Z" fill="#F0E1D4" stroke="#D8BAA3" stroke-width="1.0708" stroke-miterlimit="10" stroke-linecap="round"/>
<path d="M6.84736 295.03H162.559C166.534 295.03 170.155 297.816 171.853 302.185L213.462 424.232C215.178 428.591 212.536 433.612 208.566 433.612H54.8278C49.6803 433.612 44.956 429.992 42.7541 424.307L1.95151 304.41C0.258555 300.046 2.87806 295.03 6.84736 295.03Z" fill="white" stroke="#D8BAA3" stroke-width="1.0708" stroke-miterlimit="10" stroke-linecap="round"/>
<path d="M332.122 408.356L357.797 412.359C361.034 420.212 368.664 429.123 370.294 429.987C372.061 430.902 381.247 435.855 381.247 435.855C381.247 435.855 382.997 432.835 381.515 430.192C380.543 428.477 374.532 425.531 375.224 423.123C375.916 420.715 379.508 420.996 381.098 421.705C384.907 423.421 391.748 427.699 391.015 434.076C390.386 439.458 395.334 439.967 395.334 439.967C395.334 439.967 397.93 433.104 398.108 431.805C398.285 430.507 397.227 417.644 394.104 413.869C391.61 410.878 379.456 405.027 372.673 402.001L338.357 386.462L332.122 408.356Z" fill="#FFCFC9"/>
<path d="M221.468 290.352C221.468 290.352 216.098 365.448 232.907 384.597C249.717 403.746 306.597 414.921 332.734 408.973L339.243 386.238C313.426 368.788 275.757 345.928 275.757 345.928C275.757 345.928 263.22 240.707 243.202 227.587C223.184 214.466 222.143 275.498 221.468 290.352Z" fill="#FFB000"/>
<path d="M339.02 386.833C335.508 393.51 333.483 400.868 333.083 408.401" stroke="white" stroke-width="0.85664" stroke-miterlimit="10" stroke-linecap="round"/>
<path d="M337.184 390.671L322.622 382.727" stroke="white" stroke-width="0.85664" stroke-miterlimit="10" stroke-linecap="round"/>
<path d="M335.663 394.743L326.42 391.838" stroke="white" stroke-width="0.85664" stroke-miterlimit="10" stroke-linecap="round"/>
<path d="M334.118 400.491L315.667 397.626" stroke="white" stroke-width="0.85664" stroke-miterlimit="10" stroke-linecap="round"/>
<path d="M333.083 404.998H324.018" stroke="white" stroke-width="0.85664" stroke-miterlimit="10" stroke-linecap="round"/>
<path d="M269.043 784.918H338.941C338.941 784.918 339.896 773.708 330.934 772.152C323.35 770.831 316.143 762.853 316.143 762.853C316.143 762.853 298.613 772.038 288.118 757.248C277.623 742.457 279.041 726.935 279.041 726.935C275.712 730.972 266.235 740.753 265.846 756.024C265.693 765.751 266.767 775.459 269.043 784.918V784.918Z" fill="#E69900"/>
<path d="M345.386 480.386C357.066 481.976 382.408 502.909 368.116 544.192C353.823 585.475 298.458 714.529 298.985 726.488C299.688 742.457 316.143 762.852 316.143 762.852C316.143 762.852 298.613 772.038 288.118 757.247C277.622 742.457 279.047 726.934 279.047 726.934C279.047 726.934 270.01 627.416 285.658 546.023C292.842 508.76 324.39 477.521 345.386 480.386Z" fill="#FAB6AD"/>
<path d="M214.755 784.918H284.658C284.658 784.918 285.613 773.708 276.651 772.152C269.073 770.831 261.86 762.853 261.86 762.853C261.86 762.853 244.33 772.038 233.835 757.248C223.34 742.457 224.764 726.934 224.764 726.934C221.43 730.972 211.958 740.753 211.564 756.024C211.409 765.751 212.481 775.459 214.755 784.918V784.918Z" fill="#FFB000"/>
<path d="M291.098 480.026C300.547 487.067 310.15 502.904 295.851 544.192C281.552 585.481 243.747 714.558 244.702 726.488C245.657 738.419 261.86 762.853 261.86 762.853C261.86 762.853 244.33 772.038 233.835 757.248C223.34 742.457 224.764 726.934 224.764 726.934C224.764 726.934 204.54 595.959 212.261 546.023C218.038 508.52 264.857 460.448 291.098 480.026Z" fill="#FFCFC9"/>
<path d="M119.417 371.694C119.417 371.694 96.9564 416.306 88.4287 450.765C79.1231 488.376 102.659 513.33 155.346 513.776C197.607 514.137 189.377 541.338 189.377 541.338C189.377 541.338 209.195 552.171 230.557 541.338C253.103 529.9 264.519 535.831 280.654 542.053C300.969 549.929 319.271 534.761 335.011 533.806C358.632 532.376 365.055 549.208 389.781 534.527C389.781 534.527 398.697 471.916 361.481 447.94C324.264 423.964 204.156 398.221 208.886 373.844L119.417 371.694Z" fill="#3F4D90"/>
<path d="M243.202 227.586C228.817 217.658 193.54 205.67 179.836 192.309L122.973 189.569C104.488 203.954 69.8912 223.177 62.0156 234.753L100.364 309.792C100.364 309.792 117.145 362.52 119.542 373.135C121.938 383.75 181.884 385.826 210.653 375.194C210.653 375.194 219.232 328.294 221.954 325.543C224.677 322.792 239.421 314.602 236.67 294.378L243.202 227.586Z" fill="#FFB000"/>
<path d="M210.081 374.622C210.081 374.622 219.804 328.295 222.526 325.544C225.249 322.793 239.404 314.677 237.242 294.378C236.156 284.175 227.759 266.559 227.759 266.559" stroke="white" stroke-width="0.85664" stroke-miterlimit="10" stroke-linecap="round"/>
<path d="M196.664 414.693C196.967 416.449 198.426 422.128 204.294 424.948C211.157 428.231 212.267 428.671 218.272 431.971C223.06 434.608 226.371 440.705 228.487 443.25C233.234 448.97 236.929 431.68 235.694 428.134C230.169 419.406 218.638 408.116 209.653 402.688C206.993 401.22 204.238 399.933 201.406 398.833C194.068 395.973 181.239 391.398 167.043 386.405L160.752 408.344L196.664 414.693Z" fill="#FFCFC9"/>
<path d="M167.089 386.261C141.271 368.811 97.8549 351.098 97.8549 351.098L101.201 282.654C102.002 266.336 95.9961 250.305 84.2998 238.894C73.8561 228.708 61.4221 224.561 54.4729 250.905C54.4729 250.905 31.4693 349.943 55.0449 384.614C69.3435 405.673 134.471 414.927 160.609 409.013L167.089 386.261Z" fill="#FFB000"/>
<path d="M167.089 386.261C141.271 368.811 97.8549 351.098 97.8549 351.098L100.366 309.792" stroke="white" stroke-width="0.85664" stroke-miterlimit="10" stroke-linecap="round"/>
<path d="M167.661 386.833C164.152 393.512 162.127 400.869 161.724 408.402" stroke="white" stroke-width="0.85664" stroke-miterlimit="10" stroke-linecap="round"/>
<path d="M165.825 390.671L151.269 382.727" stroke="white" stroke-width="0.85664" stroke-miterlimit="10" stroke-linecap="round"/>
<path d="M164.309 394.743L155.061 391.838" stroke="white" stroke-width="0.85664" stroke-miterlimit="10" stroke-linecap="round"/>
<path d="M162.759 400.491L144.308 397.626" stroke="white" stroke-width="0.85664" stroke-miterlimit="10" stroke-linecap="round"/>
<path d="M161.724 404.999H152.659" stroke="white" stroke-width="0.85664" stroke-miterlimit="10" stroke-linecap="round"/>
<path d="M83.6989 150.294C83.6989 150.294 159.196 173.138 223.654 170.055C223.654 170.055 245.107 143.334 232.33 131.569C220.788 120.948 205.403 114.673 211.797 106.226C218.192 97.7782 224.346 85.3327 206.307 75.2836C188.268 65.2346 155.85 49.5976 136.095 58.9432C121.516 65.8637 129.586 85.2526 120.807 85.5558C110.643 85.9046 97.7058 92.6593 101.16 109.669C105.616 131.58 77.3046 114.216 83.6989 150.294Z" fill="#722D54"/>
<path d="M231.661 170.055C231.661 170.055 256.649 144.683 238.627 129.292C226.702 119.106 211.7 114.685 218.094 106.237C224.489 97.7897 230.643 85.3442 212.604 75.2951C194.565 65.2461 161.724 53.7957 142.386 57.7993" stroke="#722D54" stroke-width="0.64248" stroke-miterlimit="10"/>
<path d="M136.667 129.293C136.667 129.293 139.75 170.392 122.941 189.575C122.941 189.575 144.2 221.77 180.507 223.137C216.814 224.504 179.803 192.315 179.803 192.315C179.803 192.315 170.898 180.304 172.276 149.842L136.667 129.293Z" fill="#FFCFC9"/>
<path d="M136.902 129.424C141.963 142.75 154.22 168.934 173.163 171.405C172.205 164.258 171.91 157.038 172.282 149.837L136.902 129.424Z" fill="#FAB6AD"/>
<path d="M136.667 129.292C136.667 129.292 147.631 157.146 175.033 157.146C179.826 157.146 198.185 138.804 196.829 109.103C195.474 79.4017 163.388 78.5781 163.388 78.5781C163.388 78.5781 165.676 109.635 138.377 113.976C138.377 113.976 131.422 107.81 128.654 113.289C125.885 118.769 136.667 129.292 136.667 129.292Z" fill="#FFCFC9"/>
<path d="M163.388 78.0232C163.388 78.0232 173.683 109.652 146.384 113.993" stroke="#722D54" stroke-width="0.64248" stroke-miterlimit="10"/>
<path d="M129.592 140.708C125.169 140.708 121.585 137.123 121.585 132.701C121.585 128.279 125.169 124.694 129.592 124.694C134.014 124.694 137.599 128.279 137.599 132.701C137.599 137.123 134.014 140.708 129.592 140.708Z" stroke="white" stroke-width="0.85664" stroke-miterlimit="10"/>
<path d="M123.603 187.087C123.031 187.024 121.756 189.472 122.231 189.793C129.592 194.729 154.025 202.375 170.188 197.331C191.499 190.673 177.704 184.668 175.908 185.68C170.274 188.775 147.596 189.57 123.603 187.087Z" fill="white" stroke="#D8BAA3" stroke-width="1.0708" stroke-miterlimit="10" stroke-linecap="round"/>
<path d="M114.853 184.616C114.853 184.616 106.845 172.606 95.475 174.236C95.475 174.236 101.086 186.653 114.853 184.616Z" fill="white" stroke="#D8BAA3" stroke-width="1.0708" stroke-miterlimit="10" stroke-linecap="round"/>
<path d="M114.012 185.858C114.012 185.858 92.953 185.772 85.0258 201.163C85.0258 201.163 104.478 204.503 114.012 185.858Z" fill="white" stroke="#D8BAA3" stroke-width="1.0708" stroke-miterlimit="10" stroke-linecap="round"/>
<path d="M118.725 190.753C116.356 190.753 114.435 188.833 114.435 186.464C114.435 184.095 116.356 182.174 118.725 182.174C121.094 182.174 123.014 184.095 123.014 186.464C123.014 188.833 121.094 190.753 118.725 190.753Z" fill="white" stroke="#D8BAA3" stroke-width="1.0708" stroke-miterlimit="10" stroke-linecap="round"/>
<path d="M235.67 432.212H391.336C393.283 432.208 395.189 431.653 396.833 430.61C398.477 429.568 399.792 428.08 400.625 426.32L448.005 325.91C448.394 325.086 448.569 324.176 448.513 323.267C448.457 322.357 448.172 321.476 447.684 320.706C447.196 319.936 446.521 319.302 445.722 318.863C444.923 318.424 444.026 318.194 443.115 318.194H289.37C286.839 318.193 284.36 318.912 282.222 320.268C280.084 321.623 278.376 323.558 277.296 325.847L230.774 424.49C230.385 425.315 230.21 426.225 230.267 427.136C230.323 428.046 230.609 428.928 231.097 429.698C231.586 430.469 232.261 431.103 233.061 431.543C233.86 431.982 234.758 432.212 235.67 432.212V432.212Z" fill="white" stroke="#FFB000" stroke-width="1.28496" stroke-miterlimit="10"/>
<path d="M148.328 432.211H396.615C399.452 432.211 401.751 434.511 401.751 437.347V438.48C401.751 441.316 399.452 443.616 396.615 443.616H148.328C145.492 443.616 143.192 441.316 143.192 438.48V437.347C143.192 434.511 145.492 432.211 148.328 432.211Z" fill="white" stroke="#FFB000" stroke-width="1.28496" stroke-miterlimit="10"/>
</g>
<path d="M1070.01 773.567H955.584C944.824 773.567 934.506 769.293 926.898 761.685C919.29 754.077 915.016 743.758 915.016 732.999V549.719C915.016 546.895 915.572 544.099 916.653 541.489C917.733 538.88 919.318 536.51 921.314 534.513C923.311 532.516 925.682 530.932 928.291 529.851C930.9 528.77 933.697 528.214 936.521 528.214H1100.26C1103.08 528.214 1105.88 527.658 1108.49 526.577C1111.1 525.496 1113.47 523.912 1115.46 521.915C1117.46 519.918 1119.04 517.548 1120.13 514.939C1121.21 512.329 1121.76 509.533 1121.76 506.709V468.789" stroke="#D8BAA3" stroke-width="1.28496" stroke-miterlimit="10"/>
<path d="M1127.78 773.566H1064.83C1054.07 773.566 1043.75 769.292 1036.14 761.684C1028.53 754.076 1024.26 743.758 1024.26 732.998V550.388C1024.26 544.507 1026.59 538.867 1030.75 534.708C1034.91 530.55 1040.55 528.214 1046.43 528.214" stroke="#D8BAA3" stroke-width="1.28496" stroke-miterlimit="10"/>
<path d="M1125.54 307.58C1127.88 307.581 1130.2 308.082 1132.33 309.047C1134.47 310.013 1136.37 311.422 1137.91 313.181C1139.46 314.94 1140.61 317.008 1141.3 319.247C1141.98 321.486 1142.18 323.846 1141.88 326.169L1125.77 450.778C1122.98 472.339 1112.44 492.147 1096.11 506.503C1079.79 520.858 1058.79 528.779 1037.05 528.786H857.884C855.457 528.786 853.129 527.822 851.413 526.105C849.697 524.389 848.733 522.062 848.733 519.635V519.52C848.742 517.332 849.529 515.219 850.955 513.559C852.38 511.899 854.35 510.8 856.512 510.461C894.929 504.169 953.433 486.662 959.341 433.631L973.777 321.953C974.291 317.983 976.234 314.336 979.241 311.693C982.248 309.05 986.114 307.592 990.118 307.592L1125.54 307.58Z" fill="white" stroke="#D8BAA3" stroke-width="1.28496" stroke-miterlimit="10"/>
<path d="M1141.88 326.169L1125.77 450.778C1122.98 472.339 1112.44 492.147 1096.11 506.503C1079.79 520.858 1058.79 528.779 1037.05 528.786H857.89C855.463 528.786 853.135 527.822 851.419 526.105C849.703 524.389 848.739 522.062 848.739 519.635V519.52C848.737 518.078 849.081 516.657 849.739 515.374C850.482 516.801 851.602 517.997 852.978 518.831C854.354 519.665 855.932 520.105 857.541 520.104H1030.76C1051.65 520.102 1071.82 512.497 1087.51 498.708C1103.2 484.92 1113.33 465.892 1116.01 445.179L1131.49 325.437C1131.77 323.205 1131.58 320.938 1130.93 318.786C1130.27 316.634 1129.16 314.646 1127.68 312.956C1126.19 311.267 1124.36 309.913 1122.31 308.986C1120.26 308.059 1118.04 307.58 1115.79 307.581H1125.54C1127.88 307.581 1130.2 308.08 1132.33 309.046C1134.47 310.011 1136.37 311.42 1137.92 313.179C1139.46 314.938 1140.62 317.006 1141.3 319.246C1141.98 321.486 1142.18 323.846 1141.88 326.169V326.169Z" fill="#F0E1D4" stroke="#D8BAA3" stroke-width="1.28496" stroke-miterlimit="10"/>
<path d="M915.016 704.11H1024.26" stroke="#D8BAA3" stroke-width="1.28496" stroke-miterlimit="10"/>
<path d="M744.61 722.611C744.61 726.575 753.018 742.807 752.738 749.796C752.458 756.785 722.522 756.133 707.703 756.224C690.087 756.339 652.619 756.339 652.619 756.339C652.619 756.339 648.987 740.187 668.279 737.951C687.57 735.715 710.894 715.325 710.894 715.325L744.61 722.611Z" fill="#722D54"/>
<path d="M955.086 727.965C955.996 731.271 966.062 745.804 966.062 759.782C966.062 759.782 947.885 772.365 941.468 773.189C935.051 774.012 882.186 773.189 882.186 773.189C882.186 773.189 880.916 755.87 904 752.873C920.215 750.763 920.764 731.139 920.764 731.139L955.086 727.965Z" fill="#722D54"/>
<path d="M926.912 756.367C926.912 756.367 918.384 750.648 903.989 750.568" stroke="white" stroke-width="1.0708" stroke-miterlimit="10" stroke-linecap="round"/>
<path d="M1026.18 389.494C1026.18 389.494 1051.92 435.873 1041.84 468.868C1031.76 501.864 972.205 496.39 972.205 496.39C972.205 496.39 991.222 569.937 963.403 724.836C963.403 724.836 941.457 736.584 903.989 728.754C903.989 728.754 898.395 656.615 872.412 497.237L825.186 497.14C825.186 497.14 832.41 613.33 753.819 721.519C753.819 721.519 728.991 727.971 701.589 710.08C701.589 710.08 736.22 552.441 742.112 455.708C743.827 427.219 790.469 402.122 896.228 389.545C896.228 389.54 991.782 395.299 1026.18 389.494Z" fill="#3F4D90"/>
<path d="M871.257 499.542C869.284 488.36 858.674 439.041 923.001 423.381" stroke="white" stroke-width="1.0708" stroke-miterlimit="10" stroke-linecap="round"/>
<path d="M967.212 478.803C967.212 478.803 971.662 484.848 973.932 496.962" stroke="white" stroke-width="1.0708" stroke-miterlimit="10" stroke-linecap="round"/>
<path d="M860.985 350.602C836.209 387.343 725.646 371.672 696.872 366.896C694.435 369.436 691.152 372.107 687.829 372.787C681.023 374.166 660.433 372.376 657.699 374.503C657.699 374.503 656.509 368.898 663.11 365.924C667.685 363.876 675.515 365.524 672.638 362.584C670.682 360.582 665.866 361.017 655.629 364.202C651.779 365.404 637.71 372.175 634.061 362.973L647.89 349.818C657.087 344.739 661.897 338.98 681.995 343.601C684.654 344.257 687.428 344.287 690.1 343.687C696.586 340.793 752.247 317.492 802.327 309.37L813.291 237.98C831.519 254.635 863.548 269.002 865.75 269.975C865.75 270.066 871.503 335.033 860.985 350.602Z" fill="#C36F0B"/>
<path d="M866.779 285.898C855.735 280.99 828.253 267.475 811.97 246.691L813.291 238.077C831.519 254.727 863.548 269.094 865.75 270.066C865.75 270.066 866.327 276.541 866.779 285.898Z" fill="#B65A18"/>
<path d="M995.111 109.613C998.989 113.491 1024.17 132.565 1077.03 163.816C1086.55 169.444 1113.77 195.668 1112.11 251.278C1112.11 251.278 1091.97 270.632 1041.05 281.425C1041.05 281.425 1029.67 363.688 1028.84 385.273C1028.01 406.858 899.07 397.284 893.534 389.013C887.997 380.743 866.149 306.081 865.874 270.123C865.874 270.123 811.631 246.308 802.223 223.893C802.223 223.893 824.912 171.326 840.137 161.917C858.268 150.713 907.215 135.608 936.893 111.254L995.111 109.613Z" fill="#F0E1D4"/>
<path d="M1039.43 280.344L1035.63 237.002" stroke="white" stroke-width="1.28496" stroke-miterlimit="10" stroke-linecap="round"/>
<path d="M864.788 267.956C864.788 267.956 862.174 242.424 869.935 215.091" stroke="white" stroke-width="1.28496" stroke-miterlimit="10" stroke-linecap="round"/>
<path d="M945.203 224.631C953.554 273.2 974.63 342.451 939.398 363.613C939.398 363.613 947.52 344.779 928.176 300.556C901.083 238.62 930.224 165.045 937.013 149.431L927.073 136.391L941.566 121.709L945.741 122.367L958.999 138.204L944.528 152.577C943.139 156.792 937.573 180.248 945.203 224.631Z" fill="#FFB000"/>
<path d="M948.927 127.806L932.792 143.924L931.465 142.208L947.394 126.291C947.6 126.1 947.873 125.997 948.153 126.003C948.434 126.009 948.702 126.123 948.9 126.322C949.099 126.522 949.212 126.79 949.217 127.071C949.222 127.351 949.118 127.623 948.927 127.829V127.806Z" fill="white"/>
<path d="M954.343 134.309L935.469 153.183C936.041 151.708 936.613 150.461 937.042 149.449L936.653 148.94L952.839 132.765C953.046 132.585 953.314 132.491 953.589 132.501C953.863 132.511 954.124 132.624 954.318 132.818C954.512 133.013 954.626 133.273 954.636 133.548C954.646 133.822 954.551 134.09 954.371 134.298L954.343 134.309Z" fill="white"/>
<path d="M944.357 153.155C944.094 154.024 943.75 155.368 943.384 157.187L928.657 171.898C929.16 170.315 929.663 168.79 930.167 167.322L944.357 153.155Z" fill="white"/>
<path d="M941.869 168.071C941.772 169.112 941.686 170.216 941.611 171.366L923.807 188.896C924.15 187.512 924.505 186.15 924.859 184.818L941.869 168.071Z" fill="white"/>
<path d="M941.285 184.703L920.289 205.396C920.507 204.144 920.741 202.902 920.981 201.673L941.268 181.655C941.268 182.661 941.268 183.668 941.285 184.703Z" fill="white"/>
<path d="M941.926 198.705L917.904 222.315C918.015 221.171 918.139 220.036 918.276 218.912L941.726 195.862C941.783 196.794 941.852 197.738 941.926 198.705Z" fill="white"/>
<path d="M943.299 211.985L916.903 237.929C916.903 236.876 916.966 235.835 917.001 234.794L942.961 209.274C943.064 210.172 943.179 211.047 943.299 211.985Z" fill="white"/>
<path d="M945.358 225.529L917.166 252.879C917.103 251.918 917.058 250.963 917.018 250.02L944.923 222.949C945.009 223.521 945.106 224.093 945.203 224.665C945.249 224.928 945.306 225.226 945.358 225.529Z" fill="white"/>
<path d="M947.926 239.255L918.757 267.572C918.614 266.692 918.488 265.811 918.368 264.93L947.451 236.716C947.594 237.557 947.754 238.403 947.926 239.255Z" fill="white"/>
<path d="M950.688 253.245L921.582 281.482C921.364 280.676 921.164 279.864 920.97 279.057L950.179 250.723C950.368 251.558 950.534 252.405 950.688 253.245Z" fill="white"/>
<path d="M953.428 267.338L925.637 294.299C925.357 293.556 925.065 292.812 924.825 292.069L952.976 264.81C953.108 265.639 953.273 266.491 953.428 267.338Z" fill="white"/>
<path d="M956.053 282.58L930.888 307.008C930.602 306.293 930.316 305.578 930.007 304.846L955.659 279.966C955.784 280.824 955.916 281.711 956.053 282.58Z" fill="white"/>
<path d="M958.003 297.342L935.326 319.345C935.085 318.59 934.834 317.824 934.576 317.057L957.706 294.625C957.815 295.529 957.912 296.439 958.003 297.342Z" fill="white"/>
<path d="M959.073 313.094L938.912 332.648C938.735 331.842 938.552 331.018 938.34 330.177L958.97 310.159C959.016 311.137 959.05 312.127 959.073 313.094Z" fill="white"/>
<path d="M958.695 326.145C958.598 327.289 958.478 328.399 958.346 329.508L940.908 346.421C940.845 345.529 940.771 344.608 940.668 343.641L958.695 326.145Z" fill="white"/>
<path d="M908.295 129.013C915.508 134.681 923.829 140.492 923.829 140.492L943.567 120.771L963.98 143.941C997.33 141.035 1012.9 122.304 1012.9 122.304" stroke="white" stroke-width="1.28496" stroke-miterlimit="10" stroke-linecap="round"/>
<path d="M880.255 320.968H884.344C887.141 320.97 889.822 322.081 891.8 324.059C893.778 326.037 894.889 328.718 894.891 331.515V347.678C894.891 350.475 893.78 353.158 891.802 355.136C889.824 357.114 887.141 358.225 884.344 358.225H880.283" stroke="#722D54" stroke-width="1.0708" stroke-miterlimit="10"/>
<path d="M870.223 312.938H849.575C843.751 312.938 839.029 317.66 839.029 323.485V356.389C839.029 362.214 843.751 366.936 849.575 366.936H870.223C876.047 366.936 880.769 362.214 880.769 356.389V323.485C880.769 317.66 876.047 312.938 870.223 312.938Z" fill="white" stroke="#722D54" stroke-width="1.0708" stroke-miterlimit="10"/>
<path d="M1101.92 258.358C1101.92 258.358 1105.51 336.76 1095.02 349.549C1062.64 389.013 924.042 364.637 924.042 364.637L923.499 344.133C923.499 344.133 983.084 322.776 1036.35 314.151L1039.97 281.968C1039.97 281.968 1078.51 274.315 1101.92 258.358Z" fill="#C36F0B"/>
<path d="M1102.44 278.044C1082.53 288.236 1051.24 288.969 1039.57 288.654L1039.97 281.968C1039.97 281.968 1078.51 274.315 1101.92 258.358C1101.92 258.358 1102.29 266.525 1102.44 278.044Z" fill="#B65A18"/>
<path d="M925.552 342.263C925.552 342.263 907.096 327.552 898.482 330.12C889.869 332.688 888.759 343.647 887.724 346.444C886.689 349.24 885.779 359.255 885.802 362.321C885.825 365.386 894.467 366.896 897.91 366.896C901.353 366.896 923.917 367.165 928.263 365.97C932.61 364.774 925.552 342.263 925.552 342.263Z" fill="#C36F0B"/>
<path d="M897.91 366.902C894.479 366.902 888.285 367.12 886.38 364.826C882.605 360.25 883.766 352.163 884.578 349.075C885.27 346.421 889.874 332.694 898.482 330.12C898.482 330.12 887.976 349.303 897.91 366.902Z" fill="#B65A18"/>
<path d="M929.973 340.495H927.617C925.614 340.495 923.99 342.119 923.99 344.121V363.236C923.99 365.238 925.614 366.862 927.617 366.862H929.973C931.976 366.862 933.599 365.238 933.599 363.236V344.121C933.599 342.119 931.976 340.495 929.973 340.495Z" fill="#FFB000"/>
<path d="M934.509 344.55H922.978C921.108 344.55 919.592 346.066 919.592 347.936V359.466C919.592 361.336 921.108 362.852 922.978 362.852H934.509C936.379 362.852 937.895 361.336 937.895 359.466V347.936C937.895 346.066 936.379 344.55 934.509 344.55Z" fill="#3F4D79" stroke="white" stroke-width="0.42832" stroke-miterlimit="10"/>
<path opacity="0.2" d="M919.592 359.472V347.925C919.594 347.029 919.951 346.171 920.584 345.538C921.218 344.905 922.077 344.55 922.972 344.55H934.514L919.592 359.472Z" fill="white"/>
<path d="M995.111 79.1738C995.111 79.1738 987.104 94.9309 995.111 109.613C997.765 114.474 934.726 111.677 934.726 111.677L942.807 79.1738H995.111Z" fill="#C36F0B"/>
<path d="M937.242 30.4155C936.281 38.7488 935.618 58.3379 926.232 79.4998C916.847 100.662 954.189 100.153 963.849 97.4703C973.681 94.7421 979.783 86.998 979.783 86.998C979.783 86.998 999.361 81.8505 999.35 73.8433C999.35 67.6491 989.421 70.6347 989.421 70.6347C989.421 70.6347 994.928 29.0886 985 26.9381C975.071 24.7876 938.346 20.7954 937.242 30.4155Z" fill="#C36F0B"/>
<path d="M988.9 71.6755C985.469 73.2541 977.032 64.0629 981.402 53.9452C986.63 41.8715 988.231 31.5651 978.948 29.5346C969.666 27.5042 960.646 38.3884 941.606 33.0235C922.566 27.6587 925.46 3.79142 941.823 1.91544C958.187 0.0394615 960.332 12.3649 962.985 12.6337C965.639 12.9025 983.667 4.8438 993.739 15.3047C1002.1 23.9925 999.138 29.2887 1001.42 29.8263C1003.7 30.364 1011.54 33.5554 1011.01 41.8715C1010.47 50.1876 997.205 70.6003 997.205 70.6003C997.205 70.6003 994.122 69.2619 988.9 71.6755Z" fill="#722D54"/>
<path d="M973.526 28.4709C963.969 30.3869 954.692 40.0356 935.646 34.6707C916.601 29.3059 919.495 2.72763 935.858 0.851654" stroke="#722D54" stroke-width="0.64248" stroke-miterlimit="10"/>
<path d="M998.2 29.8148C1000.32 28.8139 1008.44 26.4289 1013.21 33.2465" stroke="#722D54" stroke-width="0.64248" stroke-miterlimit="10"/>
<path d="M992.578 66.4193C989.495 69.6393 982.283 81.021 980.933 93.1749C979.583 105.329 971.553 115.035 951.192 114.228C930.831 113.422 919.5 107.788 918.431 101.073C917.361 94.3588 927.302 76.8687 927.302 76.8687C927.302 76.8687 934.829 64.1029 945.827 66.5737C956.826 69.0445 958.982 87.1237 965.942 87.0436C978.988 86.8892 985.177 62.5587 985.177 62.5587L992.578 66.4193Z" fill="#722D54"/>
<path d="M996.192 71.4929V11.0326C996.192 9.24872 995.483 7.53792 994.222 6.27654C992.961 5.01516 991.25 4.30652 989.466 4.30652H970.386C969.503 4.30652 968.629 4.48053 967.813 4.81862C966.997 5.15671 966.256 5.65224 965.632 6.27688C965.008 6.90153 964.513 7.64305 964.176 8.45906C963.838 9.27508 963.665 10.1496 963.666 11.0326" stroke="#D8BAA3" stroke-width="1.0708" stroke-miterlimit="10" stroke-linecap="round"/>
<path d="M995.391 77.8356V86.4147C995.391 88.7659 994.457 91.0208 992.795 92.6833C991.132 94.3459 988.877 95.2799 986.526 95.2799H943.567" stroke="#D8BAA3" stroke-width="1.0708" stroke-miterlimit="10" stroke-linecap="round"/>
<path d="M1003.92 77.7881C1004.96 72.1725 1001.98 66.9119 997.26 66.0384C992.542 65.1648 987.874 69.009 986.834 74.6246C985.794 80.2402 988.776 85.5007 993.494 86.3742C998.212 87.2478 1002.88 83.4037 1003.92 77.7881Z" fill="white" stroke="#D8BAA3" stroke-width="1.0708" stroke-miterlimit="10" stroke-linecap="round"/>
<path d="M948.515 96.0733C948.912 93.9271 947.162 91.8035 944.606 91.3302C942.05 90.8569 939.656 92.2131 939.258 94.3593C938.861 96.5055 940.611 98.6291 943.167 99.1024C945.723 99.5757 948.118 98.2195 948.515 96.0733Z" fill="white"/>
<path d="M848.47 302.267H564.694C561.194 302.267 558.334 299.127 558.334 295.249L525.161 115.493C525.161 111.615 528.021 108.475 531.532 108.475H815.314C818.832 108.475 821.686 111.615 821.686 115.493L854.858 295.249C854.847 299.127 851.993 302.267 848.47 302.267Z" fill="white" stroke="#D8BAA3" stroke-width="1.28496" stroke-miterlimit="10"/>
<path d="M841.538 302.267H564.276C560.89 302.267 558.151 299.247 558.151 295.518L526.265 122.693C526.265 118.964 529.01 115.945 532.396 115.945H809.652C813.038 115.945 815.783 118.964 815.783 122.693L847.663 295.518C847.663 299.247 844.918 302.267 841.538 302.267Z" fill="white" stroke="#D8BAA3" stroke-width="1.28496" stroke-miterlimit="10"/>
<path d="M706.696 242.636L722.018 300.608H706.696V242.636Z" fill="#F0E1D4"/>
<path d="M792.928 358.529V365.421L693.312 341.21L593.685 365.421V358.529L682.88 329.623V244.289H705.037V330.046L792.928 358.529Z" fill="white" stroke="#D8BAA3" stroke-width="1.28496" stroke-miterlimit="10"/>
<path d="M592.582 365.97H933.558C934.993 365.971 936.415 366.254 937.74 366.805C939.066 367.355 940.271 368.162 941.285 369.178C942.299 370.194 943.103 371.4 943.65 372.727C944.198 374.054 944.478 375.476 944.476 376.911V379.771C944.476 382.667 943.326 385.444 941.278 387.491C939.231 389.539 936.454 390.689 933.558 390.689H592.753L592.582 365.97Z" fill="white"/>
<path d="M592.582 365.97H933.558C934.993 365.971 936.415 366.254 937.74 366.805C939.066 367.355 940.271 368.162 941.285 369.178C942.299 370.194 943.103 371.4 943.65 372.727C944.198 374.054 944.478 375.476 944.476 376.911V379.771C944.476 382.667 943.326 385.444 941.278 387.491C939.231 389.539 936.454 390.689 933.558 390.689H592.753" stroke="#D8BAA3" stroke-width="1.28496" stroke-miterlimit="10"/>
<path d="M848.47 773.784V391.113H872.257V773.755L848.47 773.784Z" fill="white"/>
<path d="M848.47 398.703V391.113H872.257V417.491L848.47 398.703Z" fill="#F0E1D4"/>
<path d="M848.47 773.784V391.113H872.257V773.91" stroke="#D8BAA3" stroke-width="1.28496" stroke-miterlimit="10"/>
<defs>
<clipPath id="clip0_80_15">
<rect width="450.246" height="728.835" fill="white" transform="matrix(-1 0 0 1 450.246 56.0835)"/>
</clipPath>
</defs>
</svg>
